#N struct template2 float x float y;
#N struct template1 float x float y float z;
#N canvas 2 74 1916 1004 10;
#X declare -path .;
#X obj 336 70 declare -path .;
#X obj 154 308 helloall;
#X obj 98 256 bng 15 250 50 0 empty empty empty 17 7 0 10 -262144 -1
-1;
#X obj 154 331 print got;
#X msg 179 281 list 1 2 3 4;
#X msg 177 243 foo bar 1 2;
#X msg 137 198 bar xxx;
#X obj 324 186 pointer;
#X msg 324 146 traverse pd-help-pointer-data \, bang;
#X msg 324 246 var 1 2 0.34 asdf;
#N canvas 2 74 425 146 help-pointer-template1 0;
#X obj 18 81 filledpolygon z 0 1 0 0 20 0 20 30 0 30;
#X obj 60 21 struct template1 float x float y float z;
#X restore 698 109 pd help-pointer-template1;
#N canvas 26 456 510 145 help-pointer-template2 0;
#X obj 52 78 filledcurve 909 0 0 0 0 30 30 60 0 30 -30 0 0;
#X obj 60 21 struct template2 float x float y;
#X restore 698 132 pd help-pointer-template2;
#N canvas 2 104 312 185 help-pointer-data 0;
#X scalar template2 20 97 \;;
#X scalar template1 80 17 90 \;;
#X scalar template1 120 117 9 \;;
#X restore 698 87 pd help-pointer-data;
#X connect 1 0 3 0;
#X connect 2 0 1 0;
#X connect 4 0 1 0;
#X connect 5 0 1 0;
#X connect 6 0 1 0;
#X connect 7 0 1 0;
#X connect 8 0 7 0;
#X connect 9 0 1 0;
