#N canvas 0 24 1680 1004 10;
#X declare -path .;
#X obj 336 70 declare -path .;
#X obj 98 256 bng 15 250 50 0 empty empty empty 17 7 0 10 -262144 -1
-1;
#X obj 154 331 print got;
#X msg 179 281 list 1 2 3 4;
#X msg 177 243 foo bar 1 2;
#X msg 137 198 bar xxx;
#X obj 154 308 hello/all;
#X connect 1 0 6 0;
#X connect 3 0 6 0;
#X connect 4 0 6 0;
#X connect 5 0 6 0;
#X connect 6 0 2 0;
