#N canvas 2 74 1916 1004 10;
#X declare -path xfade;
#X msg 135 73 \; pd dsp 1;
#X obj 352 171 xfade~, f 12;
#X obj 356 99 osc~ 400;
#X obj 439 89 osc~ 702;
#X obj 462 133 hsl 128 15 0 1 0 0 empty empty empty -2 -8 0 10 -262144
-1 -1 0 1;
#X obj 346 225 dac~;
#X obj 755 36 declare -path xfade;
#X connect 1 0 5 0;
#X connect 1 0 5 1;
#X connect 2 0 1 0;
#X connect 3 0 1 1;
#X connect 4 0 1 2;
