#N canvas 2 54 1916 1024 10;
#X declare -path .;
#X obj 412 209 declare -path .;
#X obj 347 298 helloworld;
#X obj 296 222 bng 15 250 50 0 empty empty empty 17 7 0 10 -262144
-1 -1;
#X floatatom 411 252 5 0 0 0 - - -, f 5;
#X msg 346 124 blah 3234;
#X msg 333 99 blah;
#X msg 376 154 soda;
#X msg 389 175 soda asdf34;
#X floatatom 348 341 5 0 0 0 - - -, f 5;
#X connect 1 0 8 0;
#X connect 2 0 1 0;
#X connect 3 0 1 1;
#X connect 4 0 1 0;
#X connect 5 0 1 0;
#X connect 6 0 1 0;
#X connect 7 0 1 0;
