#N canvas 2 54 1916 1024 10;
#X declare -path .;
#X obj 755 36 declare -path .;
#X msg 135 73 \; pd dsp 1;
#X obj 352 171 pan~, f 12;
#X obj 356 99 osc~ 400;
#X obj 439 89 osc~ 702;
#X obj 462 133 hsl 128 15 0 1 0 0 empty empty empty -2 -8 0 10 -262144
-1 -1 0 1;
#X obj 346 225 dac~;
#X connect 2 0 6 0;
#X connect 2 0 6 1;
#X connect 3 0 2 0;
#X connect 4 0 2 1;
#X connect 5 0 2 2;
