#N canvas 2 74 1362 692 10;
#X declare -path .;
#X obj 755 36 declare -path .;
#X obj 347 298 hellodsp~;
#X obj 336 232 bng 15 250 50 0 empty empty empty 17 7 0 10 -262144
-1 -1;
#X floatatom 651 144 5 0 0 0 - - -, f 5;
#X msg 346 124 blah 3234;
#X msg 376 154 blah;
#X obj 330 439 snapshot~;
#X floatatom 330 463 5 0 0 0 - - -, f 5;
#X obj 559 311 metro 20;
#X obj 561 278 tgl 15 0 empty empty empty 17 7 0 10 -262144 -1 -1 1
1;
#X obj 393 440 snapshot~;
#X floatatom 393 464 5 0 0 0 - - -, f 5;
#X obj 460 438 snapshot~;
#X floatatom 460 462 5 0 0 0 - - -, f 5;
#X obj 560 225 loadbang;
#X floatatom 466 142 5 0 0 0 - - -, f 5;
#X obj 461 177 sig~;
#X floatatom 507 140 5 0 0 0 - - -, f 5;
#X obj 502 175 sig~;
#X msg 135 73 \; pd dsp 1;
#X floatatom 559 135 5 0 0 0 - - -, f 5;
#X obj 554 170 sig~;
#X connect 1 0 6 0;
#X connect 1 1 10 0;
#X connect 1 2 12 0;
#X connect 2 0 1 0;
#X connect 4 0 1 0;
#X connect 5 0 1 0;
#X connect 6 0 7 0;
#X connect 8 0 6 0;
#X connect 8 0 10 0;
#X connect 8 0 12 0;
#X connect 9 0 8 0;
#X connect 10 0 11 0;
#X connect 12 0 13 0;
#X connect 14 0 9 0;
#X connect 15 0 16 0;
#X connect 16 0 1 0;
#X connect 17 0 18 0;
#X connect 18 0 1 1;
#X connect 20 0 21 0;
#X connect 21 0 1 2;
