#N canvas 2 74 1916 1004 10;
#X declare -path hellodsp;
#X obj 347 298 hellodsp~;
#X obj 336 232 bng 15 250 50 0 empty empty empty 17 7 0 10 -262144
-1 -1;
#X floatatom 651 144 5 0 0 0 - - -, f 5;
#X obj 330 439 snapshot~;
#X floatatom 330 463 5 0 0 0 - - -, f 5;
#X obj 559 311 metro 20;
#X obj 561 278 tgl 15 0 empty empty empty 17 7 0 10 -262144 -1 -1 1
1;
#X obj 393 440 snapshot~;
#X floatatom 393 464 5 0 0 0 - - -, f 5;
#X obj 460 438 snapshot~;
#X floatatom 460 462 5 0 0 0 - - -, f 5;
#X obj 560 225 loadbang;
#X floatatom 466 142 5 0 0 0 - - -, f 5;
#X obj 461 177 sig~;
#X floatatom 507 140 5 0 0 0 - - -, f 5;
#X obj 502 175 sig~;
#X msg 135 73 \; pd dsp 1;
#X floatatom 559 135 5 0 0 0 - - -, f 5;
#X obj 554 170 sig~;
#X msg 376 154 foo;
#X msg 372 76 bar 3;
#X msg 414 79 baz asdf;
#X msg 346 124 foo 3234 asd;
#X obj 755 36 declare -path hellodsp;
#X connect 0 0 3 0;
#X connect 0 1 7 0;
#X connect 0 2 9 0;
#X connect 1 0 0 0;
#X connect 3 0 4 0;
#X connect 5 0 3 0;
#X connect 5 0 7 0;
#X connect 5 0 9 0;
#X connect 6 0 5 0;
#X connect 7 0 8 0;
#X connect 9 0 10 0;
#X connect 11 0 6 0;
#X connect 12 0 13 0;
#X connect 13 0 0 0;
#X connect 14 0 15 0;
#X connect 15 0 0 1;
#X connect 17 0 18 0;
#X connect 18 0 0 2;
#X connect 19 0 0 0;
#X connect 20 0 0 0;
#X connect 21 0 0 0;
#X connect 22 0 0 0;
